# Blender v2.63 (sub 0) OBJ File: ''
# www.blender.org
v 1.000000 -1.000000 -1.000000
v 1.000000 -1.000000 1.000000
v -1.000000 -1.000000 1.000000
v -1.000000 -1.000000 -1.000000
v 1.000000 1.000000 -0.999999
v 0.999999 1.000000 1.000001
v -1.000000 1.000000 1.000000
v -1.000000 1.000000 -1.000000
s off
vn -0.000000 -1.000000 -0.000000
vn 0.000000 -1.000000 0.000000
vn 0.000000 1.000000 0.000000
vn -0.000000 1.000000 0.000000
vn 1.000000 -0.000000 0.000001
vn 1.000000 0.000001 0.000000
vn -0.000000 -0.000000 1.000000
vn 0.000000 0.000000 1.000000
vn -1.000000 -0.000000 -0.000000
vn -1.000000 0.000000 0.000000
vn 0.000000 0.000001 -1.000000
vn 0.000001 0.000000 -1.000000
f 1//1 2//1 3//1
f 1//2 3//2 4//2
f 5//3 8//3 7//3
f 5//4 7//4 6//4
f 1//5 5//5 6//5
f 1//6 6//6 2//6
f 2//7 6//7 7//7
f 2//8 7//8 3//8
f 3//9 7//9 8//9
f 3//10 8//10 4//10
f 5//11 1//11 4//11
f 5//12 4//12 8//12
